<?xml version="1.0" encoding="utf-8"?>
<!-- Generator: Adobe Illustrator 23.0.6, SVG Export Plug-In . SVG Version: 6.00 Build 0)  -->
<svg version="1.1" id="Layer_1" xmlns="http://www.w3.org/2000/svg" xmlns:xlink="http://www.w3.org/1999/xlink" x="0px" y="0px"
	 viewBox="0 0 1080 1080" style="enable-background:new 0 0 1080 1080;" xml:space="preserve">
<style type="text/css">
	.st0{fill:#008080;}
	.st1{fill:#FF0000;}
</style>
<g>
	<path class="st0" d="M110,181c91.5,36,182.2,68.5,266.3,104.9c12.9,5.6,24.2,30.9,24.5,47.3c2,104.5,0.4,209,0.7,313.5
		c0.2,85.8,30.9,116.4,119.6,117.8c-13.8,42.5-47.6,52.8-84.5,53.9c-51.4,1.6-94.3-18.9-116.7-66.3c-11-23.3-14.4-51.8-15-78.2
		c-1.8-72.8-0.3-145.7-0.2-218.5c0.1-75.7-11.4-88.4-92.8-99.9c0,128.1-7.2,256.5,2.2,383.6c7.7,104.5,114.8,181.1,220.4,175.1
		c109.7-6.2,200.9-96.6,203.6-207c2.8-118.7,0.6-237.5,1.6-356.3c1.5-178.7,125.2-299.2,304.7-298c-35.8,23.8-74.3,44.3-106.8,71.8
		C770,182.1,737,257.5,736.5,346.4c-0.6,117.2,0,234.4-1.5,351.5c-2.3,177.1-136.3,309.8-310.9,309.4
		c-176.3-0.4-312.6-131.7-314.6-307.1C107.7,540.3,110,199,110,181z"/>
	<path class="st1" d="M616.7,1013.5c144.8-64.9,214-172.4,207.1-331.6c-4.4-101.2-0.9-202.7,0.4-304.1
		c1.5-118.3,54.6-215.8,144.7-263.7c-72.8,195.9-35.3,397.1-48.6,594.8c-3.9,58-17.8,120.4-45.4,170.8
		C821,978.4,726.2,1015.3,616.7,1013.5z"/>
</g>
</svg>
